
        <svg xmlns="http://www.w3.org/2000/svg" xmlns:xlink="http://www.w3.org/1999/xlink" version="1.1" width="100%" 
        height="100%" viewBox="0 0 3162.1621621621625 827.0270270270271">
			
			<g transform="scale(8.108108108108109) translate(10, 10)">
				<defs id="SvgjsDefs1015"></defs><g id="SvgjsG1016" featureKey="rootContainer" transform="matrix(1,0,0,1,0,0)" fill="#eeeeee"><rect y="0" height="1" width="1" opacity="0"></rect><rect y="77" width="370" height="5"></rect></g><g id="SvgjsG1017" featureKey="monogramFeature-0" transform="matrix(3.1336736527930342,0,0,3.1336736527930342,-5.076551706030246,2.3509329896269033)" fill="#ae809e"><path d="M10.56 5.52 q1.22 0.46 2.2 1.48 q2.1 2.12 2.1 5.41 t-2.1 5.43 q-0.98 1.02 -2.2 1.48 q-1.26 0.52 -2.58 0.52 l-5.66 0 q-0.28 0 -0.49 -0.21 t-0.21 -0.49 l0 -1.44 q0 -0.3 0.21 -0.51 t0.49 -0.21 l5.6 0 q1.78 0 2.89 -1.3 t1.11 -3.26 t-1.11 -3.26 t-2.89 -1.3 l-5.6 0 q-0.28 0 -0.49 -0.21 t-0.21 -0.51 l0 -1.44 q0 -0.28 0.21 -0.49 t0.49 -0.21 l5.66 0 q1.32 0 2.58 0.52 z M22.198 12.42 q0.86 0.54 1.31 1.32 t0.45 1.74 q0 2.26 -1.72 3.46 q-1.16 0.84 -3.14 1.06 l-0.08 0 q-0.28 0 -0.46 -0.18 q-0.24 -0.22 -0.24 -0.52 l0 -1.44 q0 -0.26 0.18 -0.46 t0.44 -0.24 q0.94 -0.1 1.46 -0.44 q0.4 -0.24 0.54 -0.62 q0.08 -0.22 0.08 -0.56 q0 -0.22 -0.08 -0.38 t-0.28 -0.3 q-0.58 -0.4 -1.5 -0.68 l-0.32 -0.1 q-1 -0.28 -1.84 -0.46 q-0.18 -0.04 -0.58 -0.14 l-0.22 -0.06 q-0.72 -0.18 -1.52 -0.5 q-1.18 -0.5 -1.94 -1.26 q-0.88 -0.88 -0.88 -2.32 q0 -1.98 1.52 -3.22 q1.04 -0.88 2.92 -1.12 q0.32 -0.04 0.55 0.18 t0.23 0.52 l0 1.44 q0 0.26 -0.16 0.46 t-0.41 0.23 t-0.51 0.11 q-0.58 0.22 -0.82 0.43 t-0.34 0.43 q-0.1 0.34 -0.1 0.64 q0 0.16 0.18 0.34 q0.28 0.28 0.82 0.5 q0.24 0.1 0.84 0.3 l2.5 0.62 l0.12 0.04 q0.94 0.26 1.36 0.4 q0.94 0.32 1.64 0.78 z M18.857999999999997 7.9 q-0.24 -0.06 -0.39 -0.25 t-0.15 -0.45 l0 -1.46 q0 -0.32 0.26 -0.54 q0.1 -0.1 0.26 -0.13 t0.3 -0.01 q1.76 0.28 2.86 1.2 q1.5 1.24 1.6 3.16 q0.02 0.28 -0.19 0.51 t-0.51 0.23 l-1.56 0 q-0.26 0 -0.46 -0.18 t-0.22 -0.44 q-0.08 -0.52 -0.34 -0.86 q-0.42 -0.5 -1.3 -0.76 q-0.06 0 -0.08 -0.02 l-0.08 0 z M16.517999999999997 17.08 q0.24 0.04 0.4 0.24 t0.16 0.44 l0 1.48 q0 0.32 -0.24 0.54 q-0.2 0.16 -0.46 0.16 l-0.1 0 q-1.86 -0.28 -3.06 -1.22 q-1.56 -1.24 -1.76 -3.46 q-0.04 -0.32 0.18 -0.55 t0.52 -0.23 l1.58 0 q0.28 0 0.48 0.19 t0.22 0.47 q0.06 1 0.98 1.54 q0.42 0.24 1.1 0.4 z"></path></g><g id="SvgjsG1018" featureKey="Fok8m0-0" transform="matrix(1.7728250960606162,0,0,1.7728250960606162,87.34076404660684,8.284919285122749)" fill="#eeeeee"><path d="M6.78 5.84 q3.1 0 5.08 1.95 t2.02 5.13 q0 3.16 -1.99 5.1 t-5.07 1.98 l-5.32 0 l0 -14.16 l5.28 0 z M6.38 18.44 q2.66 0 4.17 -1.41 t1.53 -4.11 q0 -2.6 -1.48 -4.04 t-4.22 -1.48 l-3.2 0 l0 11.04 l3.2 0 z M19.9 10.4 q2.04 0 2.97 0.96 t0.95 2.9 l0 4.2 q0 0.6 0.14 1.54 l-1.5 0 q-0.1 -0.18 -0.1 -1.4 l-0.04 0 q-1.06 1.6 -3.08 1.64 q-1.54 0 -2.51 -0.77 t-0.97 -2.01 q0 -1.7 1.4 -2.49 t4.38 -0.79 l0.72 0 l0 -0.26 q0 -2.04 -2.32 -2.08 q-1.68 0 -2.78 1.02 l-0.98 -1.02 q1.44 -1.4 3.72 -1.44 z M17.44 17.3 q0 1.58 2.06 1.62 q1.22 0 1.99 -0.78 t0.77 -2.28 l0 -0.36 l-1.72 0 q-1.38 0 -2.23 0.44 t-0.87 1.36 z M29.540000000000003 10.4 q2.24 0.02 3.18 1.7 l-1.3 0.86 q-0.68 -1.12 -1.98 -1.12 q-0.78 0 -1.31 0.36 t-0.53 0.94 q0 0.94 2.34 1.36 q1.68 0.3 2.38 0.98 t0.7 1.82 q0 1.38 -1.02 2.16 t-2.72 0.78 q-1.32 0 -2.17 -0.42 t-1.47 -1.32 l1.24 -0.96 q0.58 0.7 1.14 0.98 t1.26 0.28 q0.9 0 1.48 -0.39 t0.58 -1.05 q0 -0.68 -0.61 -1.02 t-2.03 -0.62 q-1.4 -0.3 -2.03 -0.9 t-0.63 -1.66 q0 -1.18 0.97 -1.96 t2.53 -0.8 z M39.62 5.48 q2.58 0 3.96 1.66 l-1.38 1.2 q-0.8 -1.26 -2.58 -1.3 q-1.34 0 -2.18 0.64 t-0.84 1.74 q0 0.96 0.64 1.52 t2.4 1.1 q2.28 0.66 3.23 1.61 t0.95 2.57 q0 1.88 -1.4 3 t-3.58 1.14 q-1.46 0 -2.6 -0.52 t-1.76 -1.44 l1.44 -1.18 q0.46 0.76 1.28 1.17 t1.74 0.41 q1.26 0 2.17 -0.71 t0.91 -1.75 q0 -0.94 -0.53 -1.48 t-1.75 -0.92 l-1.62 -0.54 q-1.82 -0.62 -2.57 -1.55 t-0.75 -2.29 q0 -1.8 1.34 -2.93 t3.48 -1.15 z M53.18000000000001 5.48 q3.2 0 5.28 2.1 t2.12 5.34 q-0.02 3.3 -2.14 5.36 t-5.26 2.08 q-3.2 0 -5.28 -2.11 t-2.12 -5.33 q0 -3.2 2.08 -5.3 t5.32 -2.14 z M47.580000000000005 12.92 q0 2.54 1.6 4.19 t4 1.69 q2.4 0 3.98 -1.68 t1.62 -4.2 q0 -2.46 -1.56 -4.15 t-4.06 -1.73 q-2.44 0.02 -3.99 1.71 t-1.59 4.17 z M63.52 10.64 l2.14 7.2 l0.04 0 l2.42 -7.2 l1.64 0 l2.46 7.2 l0.04 0 l2.12 -7.2 l1.68 0 l-3.02 9.36 l-1.54 0 l-2.66 -7.2 l-0.04 0 l-2.36 7.2 l-1.6 0 l-3.04 -9.36 l1.72 0 z M79.78 5.84 l0 12.6 l6.48 0 l0 1.56 l-8.16 0 l0 -14.16 l1.68 0 z M89.72 5.84 l0 8.52 q0 2.16 0.92 3.28 t2.74 1.16 q1.82 -0.02 2.73 -1.15 t0.93 -3.21 l0 -8.6 l1.68 0 l0 8.82 q0 2.7 -1.4 4.19 t-3.94 1.51 q-2.5 0 -3.91 -1.51 t-1.43 -4.21 l0 -8.8 l1.68 0 z M111.68 5.84 l0 1.56 l-4.68 0 l0 12.6 l-1.68 0 l0 -12.6 l-4.68 0 l0 -1.56 l11.04 0 z M115.34 5.84 l0 14.16 l-1.68 0 l0 -14.16 l1.68 0 z M125.44000000000001 5.48 q3.2 0 5.28 2.1 t2.12 5.34 q-0.02 3.3 -2.14 5.36 t-5.26 2.08 q-3.2 0 -5.28 -2.11 t-2.12 -5.33 q0 -3.2 2.08 -5.3 t5.32 -2.14 z M119.84 12.92 q0 2.54 1.6 4.19 t4 1.69 q2.4 0 3.98 -1.68 t1.62 -4.2 q0 -2.46 -1.56 -4.15 t-4.06 -1.73 q-2.44 0.02 -3.99 1.71 t-1.59 4.17 z M137.66 5.84 l8.2 11.76 l0.04 0 l0 -11.76 l1.68 0 l0 14.16 l-2.12 0 l-8.2 -11.76 l-0.04 0 l0 11.76 l-1.68 0 l0 -14.16 l2.12 0 z M155.24 5.48 q2.58 0 3.96 1.66 l-1.38 1.2 q-0.8 -1.26 -2.58 -1.3 q-1.34 0 -2.18 0.64 t-0.84 1.74 q0 0.96 0.64 1.52 t2.4 1.1 q2.28 0.66 3.23 1.61 t0.95 2.57 q0 1.88 -1.4 3 t-3.58 1.14 q-1.46 0 -2.6 -0.52 t-1.76 -1.44 l1.44 -1.18 q0.46 0.76 1.28 1.17 t1.74 0.41 q1.26 0 2.17 -0.71 t0.91 -1.75 q0 -0.94 -0.53 -1.48 t-1.75 -0.92 l-1.62 -0.54 q-1.82 -0.62 -2.57 -1.55 t-0.75 -2.29 q0 -1.8 1.34 -2.93 t3.48 -1.15 z"></path></g><g id="SvgjsG1019" featureKey="TflPBd-0" transform="matrix(0.7248158403051623,0,0,0.7248158403051623,89.9130225277311,50.02800952692207)" fill="#ae809e"><path d="M7.94 5.84 l6.02 14.16 l-1.96 0 l-1.44 -3.48 l-7.08 0 l-1.46 3.48 l-1.9 0 l6.24 -14.16 l1.58 0 z M7.08 8 l-2.94 6.96 l5.78 0 l-2.8 -6.96 l-0.04 0 z M51.36200000000001 5.48 q1.66 0 2.94 0.59 t2.06 1.63 l-1.46 1.06 q-0.64 -0.86 -1.58 -1.29 t-1.96 -0.43 q-2.26 0 -3.81 1.72 t-1.59 4.16 q0 2.52 1.54 4.19 t3.86 1.69 q2.54 0 4.1 -1.98 l1.26 1.06 q-1.86 2.48 -5.36 2.48 q-3.1 0 -5.13 -2.14 t-2.07 -5.3 q0 -3.16 2.05 -5.28 t5.15 -2.16 z M77.43300000000002 5.48 q3.2 0 5.28 2.1 t2.12 5.34 q-0.02 3.3 -2.14 5.36 t-5.26 2.08 q-3.2 0 -5.28 -2.11 t-2.12 -5.33 q0 -3.2 2.08 -5.3 t5.32 -2.14 z M71.83300000000001 12.92 q0 2.54 1.6 4.19 t4 1.69 q2.4 0 3.98 -1.68 t1.62 -4.2 q0 -2.46 -1.56 -4.15 t-4.06 -1.73 q-2.44 0.02 -3.99 1.71 t-1.59 4.17 z M104.34400000000002 5.84 q3.1 0 5.08 1.95 t2.02 5.13 q0 3.16 -1.99 5.1 t-5.07 1.98 l-5.32 0 l0 -14.16 l5.28 0 z M103.94400000000002 18.44 q2.66 0 4.17 -1.41 t1.53 -4.11 q0 -2.6 -1.48 -4.04 t-4.22 -1.48 l-3.2 0 l0 11.04 l3.2 0 z M127.61500000000002 5.84 l0 14.16 l-1.68 0 l0 -14.16 l1.68 0 z M145.04600000000002 5.84 l8.2 11.76 l0.04 0 l0 -11.76 l1.68 0 l0 14.16 l-2.12 0 l-8.2 -11.76 l-0.04 0 l0 11.76 l-1.68 0 l0 -14.16 l2.12 0 z M177.07700000000003 5.48 q3.14 0 5 1.86 l-1.26 1.32 q-0.74 -0.78 -1.75 -1.2 t-2.11 -0.42 q-2.44 0 -4.05 1.68 t-1.65 4.2 q0.02 2.62 1.66 4.23 t4.2 1.65 q1.84 0 3.52 -0.82 l0 -4.34 l-3.26 0 l0 -1.56 l4.94 0 l0 6.96 q-2.44 1.32 -5.3 1.32 q-3.34 0 -5.43 -2.09 t-2.13 -5.35 q0.02 -3.26 2.16 -5.32 t5.46 -2.12 z M221.35900000000004 5.48 q1.66 0 2.94 0.59 t2.06 1.63 l-1.46 1.06 q-0.64 -0.86 -1.58 -1.29 t-1.96 -0.43 q-2.26 0 -3.81 1.72 t-1.59 4.16 q0 2.52 1.54 4.19 t3.86 1.69 q2.54 0 4.1 -1.98 l1.26 1.06 q-1.86 2.48 -5.36 2.48 q-3.1 0 -5.13 -2.14 t-2.07 -5.3 q0 -3.16 2.05 -5.28 t5.15 -2.16 z M247.43000000000004 5.48 q3.2 0 5.28 2.1 t2.12 5.34 q-0.02 3.3 -2.14 5.36 t-5.26 2.08 q-3.2 0 -5.28 -2.11 t-2.12 -5.33 q0 -3.2 2.08 -5.3 t5.32 -2.14 z M241.83000000000004 12.92 q0 2.54 1.6 4.19 t4 1.69 q2.4 0 3.98 -1.68 t1.62 -4.2 q0 -2.46 -1.56 -4.15 t-4.06 -1.73 q-2.44 0.02 -3.99 1.71 t-1.59 4.17 z M271.821 5.84 l4.8 11.1 l0.04 0 l4.84 -11.1 l2.44 0 l0 14.16 l-1.68 0 l0 -11.88 l-0.04 0 l-5.08 11.88 l-1.02 0 l-5.08 -11.88 l-0.04 0 l0 11.88 l-1.68 0 l0 -14.16 l2.5 0 z M303.552 5.84 q2.28 0 3.55 0.98 t1.31 2.9 q0 1.86 -1.24 2.87 t-3.32 1.05 l-2.92 0 l0 6.36 l-1.68 0 l0 -14.16 l4.3 0 z M303.85200000000003 12.08 q1.28 0 2.02 -0.62 t0.74 -1.72 t-0.73 -1.72 t-2.03 -0.62 l-2.92 0 l0 4.68 l2.92 0 z M329.083 5.84 l6.02 14.16 l-1.96 0 l-1.44 -3.48 l-7.08 0 l-1.46 3.48 l-1.9 0 l6.24 -14.16 l1.58 0 z M328.223 8 l-2.94 6.96 l5.78 0 l-2.8 -6.96 l-0.04 0 z M350.894 5.84 l8.2 11.76 l0.04 0 l0 -11.76 l1.68 0 l0 14.16 l-2.12 0 l-8.2 -11.76 l-0.04 0 l0 11.76 l-1.68 0 l0 -14.16 l2.12 0 z M376.325 5.84 l3.98 6.4 l4.1 -6.4 l2.02 0 l-5.28 8.06 l0 6.1 l-1.68 0 l0 -6.1 l-5.28 -8.06 l2.14 0 z"></path></g>
			</g>
		</svg>
	